<?xml version="1.0" standalone="no"?>
<!DOCTYPE svg PUBLIC "-//W3C//DTD SVG 20010904//EN"
 "http://www.w3.org/TR/2001/REC-SVG-20010904/DTD/svg10.dtd">
<svg version="1.0" xmlns="http://www.w3.org/2000/svg"
 width="500.000000pt" height="500.000000pt" viewBox="0 0 500.000000 500.000000"
 preserveAspectRatio="xMidYMid meet">
<metadata>
Created by potrace 1.14, written by Peter Selinger 2001-2017
</metadata>
<g transform="translate(0.000000,500.000000) scale(0.100000,-0.100000)"
fill="#000000" stroke="none">
<path d="M2420 4983 c-90 -5 -289 -33 -381 -53 -221 -49 -511 -174 -654 -282
-307 -232 -469 -518 -483 -854 -19 -464 206 -800 719 -1071 184 -98 482 -221
842 -347 226 -80 498 -183 617 -233 507 -216 783 -456 878 -764 28 -89 45
-249 37 -333 -32 -326 -274 -648 -619 -823 -565 -286 -1266 -164 -1841 320
-185 156 -376 372 -512 580 -45 67 -70 97 -84 97 -18 0 -19 -11 -19 -327 l1
-328 77 -54 c350 -246 724 -415 1078 -486 113 -23 143 -25 416 -25 252 0 313
3 414 20 554 95 995 374 1227 775 96 165 140 329 140 515 -1 201 -37 360 -120
522 -59 116 -121 195 -236 304 -239 226 -555 382 -1252 617 -407 138 -608 214
-784 298 -301 144 -478 294 -574 484 -106 212 -92 507 35 745 186 348 542 570
1023 636 146 20 432 15 570 -11 106 -19 265 -70 372 -120 236 -109 470 -335
597 -575 35 -66 53 -90 67 -90 19 0 19 9 17 326 l-3 327 -145 43 c-451 136
-951 194 -1420 167z"/>
<path d="M2473 4633 c-10 -3 -13 -52 -13 -194 0 -104 -2 -189 -4 -189 -3 0
-100 61 -216 135 -116 74 -215 135 -220 135 -5 0 -21 -5 -35 -12 -54 -24 -32
-45 225 -208 l245 -156 3 -288 2 -289 -22 15 c-200 131 -300 189 -318 183 -21
-7 -37 -46 -26 -64 4 -5 87 -61 186 -123 l180 -113 0 -167 0 -166 31 -11 c61
-21 59 -27 59 163 l0 174 180 114 c183 115 208 139 180 173 -7 8 -21 15 -32
15 -10 0 -86 -43 -168 -95 -82 -52 -152 -95 -155 -95 -3 0 -5 129 -5 288 l1
287 244 154 c147 92 247 161 251 173 7 24 -23 61 -46 55 -8 -2 -112 -66 -230
-141 l-215 -137 -3 196 -2 195 -33 -1 c-17 0 -38 -3 -44 -6z"/>
<path d="M3510 4255 c0 -8 28 -139 61 -291 l62 -276 -199 -199 c-109 -109
-201 -199 -205 -199 -3 0 -23 80 -45 177 -21 97 -45 183 -53 190 -7 8 -23 13
-34 11 -43 -7 -43 -26 7 -249 l47 -213 -116 -116 -117 -117 47 -13 47 -13 102
102 102 101 208 -47 c223 -50 238 -50 244 0 4 35 -5 38 -202 82 -88 19 -162
37 -165 40 -3 3 85 95 194 205 l200 199 284 -64 c207 -46 290 -61 303 -54 21
11 24 52 5 67 -7 6 -116 34 -242 62 -127 28 -241 54 -253 57 -22 5 -20 9 39
69 l63 64 -59 0 c-53 0 -62 -3 -92 -32 -18 -17 -34 -30 -37 -27 -2 2 -18 72
-36 154 -18 83 -39 165 -46 183 -12 30 -103 162 -111 162 -2 0 -3 -7 -3 -15z"/>
<path d="M1872 3657 c-13 -15 -62 -229 -55 -240 9 -15 65 -38 73 -30 4 4 19
61 34 126 19 87 23 124 15 138 -11 22 -51 25 -67 6z"/>
<path d="M487 3033 c-20 -19 5 -72 128 -264 74 -117 135 -216 135 -221 0 -4
-164 -8 -365 -8 -354 0 -365 -1 -375 -20 -8 -14 -8 -26 0 -40 10 -19 21 -20
375 -20 201 0 365 -3 365 -7 0 -3 -61 -102 -136 -220 -104 -164 -135 -219
-132 -240 2 -23 9 -29 33 -31 29 -3 35 5 189 248 l159 250 283 0 c156 0 284
-2 284 -5 0 -2 -43 -72 -95 -153 -102 -160 -114 -197 -70 -208 14 -3 32 -1 39
6 18 14 216 324 216 336 0 5 -39 30 -87 57 l-87 47 -241 0 -241 0 -158 250
c-143 226 -161 250 -186 250 -14 0 -30 -3 -33 -7z"/>
<path d="M4407 2958 c-28 -46 -99 -157 -157 -248 l-105 -165 -129 -3 -130 -3
55 -39 c51 -37 58 -39 125 -40 l71 0 158 -249 c86 -137 165 -251 175 -254 26
-7 50 11 50 39 0 15 -53 108 -130 230 -72 112 -133 211 -137 219 -4 13 43 15
361 15 355 0 366 1 376 20 8 14 8 26 0 40 -10 19 -23 20 -376 22 l-365 3 137
215 c75 118 139 223 142 233 6 24 -16 47 -44 47 -20 0 -35 -17 -77 -82z"/>
<path d="M3704 2912 c-6 -4 -39 -50 -72 -102 l-61 -95 32 -17 c18 -9 37 -17
42 -18 11 0 114 160 122 189 8 32 -35 62 -63 43z"/>
<path d="M1952 2017 l-163 -164 -192 43 c-106 24 -203 44 -218 44 -44 0 -66
-43 -34 -70 8 -7 92 -29 186 -50 94 -21 172 -40 174 -42 3 -2 -87 -95 -198
-206 l-202 -201 -44 10 c-24 5 -46 7 -49 5 -7 -8 90 -159 155 -241 63 -79 61
-84 24 81 l-18 82 203 203 c112 112 204 199 204 194 1 -40 81 -360 92 -366 7
-5 22 -8 32 -7 42 6 42 28 -7 245 l-46 208 179 180 c99 99 180 183 180 187 0
8 -57 28 -79 28 -9 0 -90 -73 -179 -163z"/>
<path d="M2460 1800 l0 -261 -105 -67 c-254 -161 -260 -166 -263 -194 -2 -19
3 -30 17 -38 25 -13 22 -14 198 97 73 45 137 83 143 83 7 0 10 -93 10 -279 l0
-279 -225 -144 c-124 -79 -225 -145 -225 -149 0 -3 19 -14 42 -25 l42 -21 177
114 c98 62 180 113 183 113 4 0 6 -80 6 -179 l0 -179 31 -6 c17 -3 35 -6 40
-6 5 0 9 84 9 186 0 145 3 185 13 181 6 -3 108 -66 226 -141 118 -75 219 -136
225 -136 35 0 48 57 19 82 -10 8 -123 81 -250 162 l-233 147 0 285 c0 156 3
284 7 284 3 0 78 -45 165 -101 166 -105 191 -114 204 -64 3 13 3 28 0 34 -4 5
-89 62 -191 126 l-185 117 0 248 0 248 -31 11 c-18 6 -36 11 -40 11 -5 0 -9
-117 -9 -260z"/>
<path d="M3132 1703 c-68 -297 -76 -341 -63 -357 16 -20 45 -21 63 -3 7 8 31
94 52 191 l39 178 203 -204 203 -203 -64 -284 c-48 -213 -61 -290 -54 -304 13
-23 28 -12 68 47 22 32 38 87 75 251 l46 211 -16 54 c-28 95 -64 152 -152 242
-84 86 -182 159 -314 232 l-66 37 -20 -88z"/>
</g>
</svg>
