<?xml version="1.0" standalone="no"?>
<!DOCTYPE svg PUBLIC "-//W3C//DTD SVG 20010904//EN"
 "http://www.w3.org/TR/2001/REC-SVG-20010904/DTD/svg10.dtd">
<svg version="1.0" xmlns="http://www.w3.org/2000/svg"
 width="463.000000pt" height="463.000000pt" viewBox="0 0 463.000000 463.000000"
 preserveAspectRatio="xMidYMid meet">
<metadata>
Created by potrace 1.14, written by Peter Selinger 2001-2017
</metadata>
<g transform="translate(0.000000,463.000000) scale(0.100000,-0.100000)"
fill="#000000" stroke="none">
<path d="M1954 4571 c-22 -10 -55 -37 -73 -59 -32 -41 -108 -193 -114 -228 -1
-11 -5 -23 -8 -29 -6 -9 -15 -43 -25 -90 -18 -83 -5 -155 26 -155 12 0 30 42
35 80 2 14 4 25 5 25 2 0 10 31 14 55 2 8 8 28 15 43 6 16 11 30 11 33 0 3 7
21 17 42 9 20 17 39 18 42 0 3 9 21 20 40 11 19 18 38 18 41 -1 3 14 21 33 40
49 48 67 34 68 -54 1 -37 -2 -67 -6 -67 -4 0 -5 -9 -3 -20 2 -11 -1 -22 -6
-25 -5 -4 -7 -11 -4 -16 4 -5 2 -9 -4 -9 -15 0 -6 -59 12 -77 11 -12 19 -13
36 -4 22 12 46 49 37 58 -13 13 61 127 111 174 93 84 122 63 98 -71 -3 -19 -7
-47 -9 -61 -2 -15 -7 -32 -11 -38 -12 -20 23 -61 48 -57 12 3 25 5 28 5 7 1
19 39 25 76 2 11 6 34 9 50 12 65 15 144 5 150 -6 4 -8 10 -5 15 10 16 -22 65
-49 78 -37 17 -94 -3 -166 -58 -39 -29 -70 -29 -70 1 0 28 -2 32 -24 56 -29
31 -64 35 -112 14z"/>
<path d="M3669 4514 c-8 -9 -23 -35 -34 -57 -34 -66 -49 -69 -93 -18 -28 33
-45 44 -72 46 -42 4 -60 -10 -107 -83 -38 -58 -53 -62 -65 -16 -4 17 -16 39
-27 48 -19 17 -20 17 -31 -3 -6 -12 -8 -26 -5 -31 3 -6 2 -10 -3 -10 -14 0 -9
-121 6 -147 20 -37 47 -46 87 -29 33 14 54 41 95 120 27 54 44 55 87 8 51 -57
89 -64 131 -25 47 42 103 141 97 171 -7 41 -42 55 -66 26z"/>
<path d="M2989 4515 c-4 -3 -17 -8 -30 -10 -56 -11 -108 -75 -110 -136 -3 -62
12 -98 60 -143 17 -17 31 -35 31 -41 0 -21 35 -45 59 -40 13 2 32 12 43 22 24
21 80 108 86 131 10 41 8 119 -4 142 -13 28 -48 62 -67 67 -7 1 -23 5 -37 9
-14 3 -28 3 -31 -1z m38 -116 c6 -6 8 -23 3 -45 -4 -19 -6 -34 -3 -34 2 0 -5
-13 -17 -30 -41 -57 -87 -28 -81 51 3 47 69 87 98 58z"/>
<path d="M2558 4466 c-41 -28 -66 -64 -73 -105 -3 -19 -8 -38 -11 -42 -7 -13
20 -71 51 -107 59 -70 149 -77 209 -17 25 25 20 54 -11 66 -17 6 -28 6 -32 0
-4 -5 -18 -12 -33 -15 -35 -6 -100 46 -81 65 10 10 21 10 48 2 19 -6 35 -7 35
-2 0 4 7 6 15 3 21 -8 75 52 75 83 0 29 -56 87 -76 79 -7 -3 -16 -1 -19 4 -10
15 -66 8 -97 -14z m72 -86 c0 -3 -9 -6 -20 -7 -23 -2 -25 3 -7 21 11 13 26 4
27 -14z"/>
<path d="M3620 4004 c-68 -42 -127 -89 -203 -162 -58 -55 -241 -343 -251 -395
-2 -7 -13 -34 -26 -62 -12 -27 -28 -66 -34 -85 -9 -23 -21 -36 -39 -41 -15 -4
-27 -4 -27 0 0 4 -12 8 -27 9 -16 1 -48 5 -73 8 -52 8 -413 8 -510 1 -68 -6
-125 -12 -200 -22 -25 -4 -63 -8 -85 -11 -51 -6 -80 -11 -80 -14 0 -1 -16 -3
-35 -5 -19 -2 -48 -6 -65 -10 -16 -3 -41 -7 -55 -9 -14 -2 -25 -4 -25 -6 0 -1
-9 -3 -20 -5 -19 -3 -30 -6 -95 -21 -14 -3 -34 -7 -45 -8 -11 -2 -20 -4 -20
-5 0 -2 -8 -4 -18 -6 -10 -2 -26 -7 -35 -11 -19 -8 -29 -11 -57 -17 -58 -14
-111 -30 -121 -38 -6 -5 -13 -6 -17 -3 -3 3 -16 0 -29 -7 -12 -7 -27 -14 -33
-14 -11 -1 -36 -10 -75 -28 -14 -6 -28 -11 -32 -13 -5 -1 -9 -2 -10 -4 -2 -1
-15 -4 -31 -6 -22 -4 -29 0 -36 18 -5 13 -7 26 -4 30 7 13 -73 123 -150 206
-40 44 -102 115 -138 159 -61 73 -174 173 -196 173 -5 0 -14 5 -21 12 -12 12
-19 14 -54 20 -9 2 -48 -26 -88 -60 -60 -55 -78 -79 -120 -162 -26 -54 -46
-101 -43 -104 4 -3 1 -6 -6 -6 -7 0 -11 -6 -8 -14 3 -7 1 -18 -4 -23 -5 -5
-12 -25 -15 -44 -3 -19 -7 -45 -10 -59 -8 -47 -20 -179 -30 -335 -10 -145 -5
-535 6 -535 3 0 5 -12 6 -27 1 -29 8 -71 18 -110 3 -13 8 -31 10 -40 2 -10 16
-43 30 -73 19 -40 22 -57 14 -67 -6 -8 -8 -16 -5 -20 4 -3 1 -13 -5 -21 -9
-10 -13 -67 -13 -186 0 -94 -4 -176 -8 -182 -3 -6 -28 -19 -54 -29 -116 -45
-216 -121 -228 -174 -15 -69 43 -90 104 -38 18 15 62 42 97 60 73 36 84 32 91
-31 l5 -39 -99 -68 c-154 -106 -200 -149 -198 -182 3 -39 2 -39 28 -50 32 -15
60 -1 142 70 154 133 142 127 162 80 9 -21 17 -48 19 -59 5 -47 76 -177 129
-241 90 -108 218 -219 295 -258 38 -19 73 -34 77 -33 5 1 22 -5 38 -14 22 -11
56 -15 125 -14 52 0 100 -2 105 -7 64 -48 62 -42 67 -149 1 -21 4 -38 7 -38 3
0 6 -31 5 -69 -1 -83 16 -156 42 -181 18 -18 43 -26 109 -36 17 -2 36 -6 43
-9 6 -2 12 0 12 6 0 6 4 7 10 4 13 -8 57 16 167 91 51 36 93 62 93 59 0 -4 7
0 15 7 8 7 34 28 57 46 24 18 67 52 97 75 29 23 63 47 74 54 11 6 50 41 87 78
62 62 70 66 116 69 62 3 100 -12 183 -74 66 -48 104 -68 150 -76 13 -3 49 -18
80 -33 31 -16 67 -32 81 -36 14 -4 33 -15 44 -24 10 -9 20 -15 22 -13 3 1 25
-9 49 -24 29 -17 55 -24 71 -21 13 2 27 1 29 -3 6 -9 154 -6 177 4 14 6 27 24
33 46 9 35 22 61 43 89 17 23 26 48 27 73 0 21 3 38 6 38 6 0 6 8 13 123 3 48
10 75 23 89 17 19 63 47 80 49 5 1 46 20 93 42 47 22 101 46 121 52 103 34
293 189 382 313 57 79 131 225 120 236 -4 3 -1 6 6 6 8 0 11 7 7 15 -3 8 -1
15 4 15 8 0 5 38 -4 66 -3 6 1 22 8 35 6 13 12 35 13 47 1 13 9 34 17 47 l16
24 72 -31 c40 -16 79 -35 86 -40 6 -6 12 -8 12 -4 0 8 120 -56 186 -100 l55
-37 27 21 c29 21 32 53 9 80 -22 28 -219 146 -254 154 -5 1 -34 14 -65 30 -31
15 -66 29 -77 31 -34 5 -60 36 -55 65 5 31 32 55 48 44 11 -7 22 -9 66 -17 14
-2 25 -5 25 -6 0 -1 9 -3 20 -5 22 -4 96 -20 135 -29 26 -6 74 14 71 29 -2 5
2 12 8 15 14 9 -25 73 -42 70 -6 -1 -25 3 -41 10 -16 6 -31 9 -34 7 -2 -3 -12
-1 -21 3 -9 5 -32 12 -51 16 -19 3 -42 8 -50 9 -8 2 -22 6 -30 9 -8 3 -35 12
-59 19 -47 15 -44 11 -51 98 -1 8 -4 22 -7 30 -3 8 -7 26 -8 40 -1 14 -6 36
-10 50 -10 34 -8 122 3 129 5 3 9 22 10 41 1 23 9 42 24 56 13 11 24 26 26 32
1 7 4 20 6 30 1 9 6 24 10 33 4 9 6 20 5 25 -1 5 0 11 1 14 6 11 6 331 1 335
-4 2 -6 29 -5 60 1 30 -2 58 -7 60 -4 3 -6 14 -4 24 2 10 -1 36 -6 57 -5 22
-12 55 -15 74 -3 19 -9 40 -12 45 -4 6 -8 20 -10 33 -1 12 -8 35 -14 50 -6 15
-13 37 -15 50 -12 70 -161 387 -225 478 -19 27 -55 83 -79 124 -40 69 -56 89
-69 90 -3 0 -39 -21 -80 -46z"/>
</g>
</svg>
